<svg fill="none" height="20" viewBox="0 0 12 20" width="12" xmlns="http://www.w3.org/2000/svg"><path d="m11.3571.387281c-.1224-.122762-.2679-.220161-.4281-.286617-.1601-.0664564-.3318-.100664-.5052-.100664s-.3451.0342076-.50524.100664c-.16015.066456-.30562.163855-.42807.286617l-8.869094 8.869089c-.097764.09757-.175326.21346-.228247.34103-.052921.12758-.080161.26434-.080161.40246 0 .13814.02724.27484.080161.40244s.130483.2435.228247.341l8.869094 8.8691c.51671.5168 1.34991.5168 1.86661 0 .5168-.5167.5168-1.3498 0-1.8666l-7.74067-7.7407 7.75127-7.7512c.5062-.51674.5062-1.34987-.0106-1.866619z" fill="#fff"/></svg>