<svg fill="none" height="54" viewBox="0 0 55 54" width="55" xmlns="http://www.w3.org/2000/svg" xmlns:xlink="http://www.w3.org/1999/xlink"><filter id="a" color-interpolation-filters="sRGB" filterUnits="userSpaceOnUse" height="54" width="54" x=".166992" y="0"><feFlood flood-opacity="0" result="BackgroundImageFix"/><feColorMatrix in="SourceAlpha" result="hardAlpha" type="matrix" values="0 0 0 0 0 0 0 0 0 0 0 0 0 0 0 0 0 0 127 0"/><feMorphology in="SourceAlpha" operator="dilate" radius="1" result="effect1_dropShadow_1671_3639"/><feOffset dx="2" dy="4"/><feGaussianBlur stdDeviation="2"/><feComposite in2="hardAlpha" operator="out"/><feColorMatrix type="matrix" values="0 0 0 0 0.521569 0 0 0 0 0.45098 0 0 0 0 0.427451 0 0 0 0.4 0"/><feBlend in2="BackgroundImageFix" mode="normal" result="effect1_dropShadow_1671_3639"/><feBlend in="SourceGraphic" in2="effect1_dropShadow_1671_3639" mode="normal" result="shape"/></filter><g filter="url(#a)"><circle cx="25.167" cy="23" fill="#fff9f7" r="22"/><g stroke="#273248" stroke-linecap="round" stroke-linejoin="round" stroke-width="2"><path d="m19.4 16.834.445-2.226c.0906-.4536.3357-.8617.6934-1.1549.3578-.2931.8061-.4533 1.2686-.4531h6.72c.4625-.0002.9108.16 1.2685.4531.3578.2932.6028.7013.6935 1.1549l.445 2.226c.0698.3488.2373.6706.4828.928s.5591.4398.9042.526c.813.2034 1.5347.6727 2.0503 1.3333.5157.6606.7958 1.4746.7957 2.3127v7.066c0 1.0609-.4214 2.0783-1.1716 2.8284-.7501.7502-1.7675 1.1716-2.8284 1.1716h-12c-1.0609 0-2.0783-.4214-2.8284-1.1716-.7502-.7501-1.1716-1.7675-1.1716-2.8284v-7.066c-.0001-.8381.28-1.6521.7956-2.3127.5157-.6606 1.2374-1.1299 2.0504-1.3333.3451-.0862.6587-.2686.9042-.526s.4129-.5792.4828-.928z"/><path d="m25.167 29c2.2091 0 4-1.7909 4-4s-1.7909-4-4-4-4 1.7909-4 4 1.7909 4 4 4z"/><path d="m24.167 17h2"/></g></g></svg>