<svg fill="none" height="38" viewBox="0 0 29 38" width="29" xmlns="http://www.w3.org/2000/svg"><g fill="#fc7643"><path d="m25.7464 4.00002h-22c-.26522 0-.51957.10535-.70711.29289-.18753.18754-.29289.44189-.29289.70711v17.99998c0 .2652.10536.5196.29289.7071.18754.1876.44189.2929.70711.2929h22c.2652 0 .5196-.1053.7071-.2929.1875-.1875.2929-.4419.2929-.7071v-17.99998c0-.26522-.1054-.51957-.2929-.70711s-.4419-.29289-.7071-.29289zm-.5 18.49998h-2.5v-.75h-5v.75h-13.5v-16.99998h21zm-12.21-10.79c0-.4535.1802-.8884.5008-1.2091.3207-.3207.7557-.5009 1.2092-.5009.95 0 1.71.77 1.71 1.71 0 .95-.76 1.72-1.71 1.72s-1.71-.77-1.71-1.72zm-4.58 1.58c0-.71.58-1.29 1.29-1.29.3421 0 .6702.1359.9122.3778.2419.242.3778.5701.3778.9122 0 .71-.58 1.28-1.29 1.28s-1.29-.57-1.29-1.28zm10 0c0-.3421.1359-.6702.3778-.9122.242-.2419.5701-.3778.9122-.3778s.6702.1359.9122.3778c.2419.242.3778.5701.3778.9122 0 .71-.58 1.28-1.29 1.28s-1.29-.57-1.29-1.28zm4.29 3.85v.86h-16v-.86c0-.94 1.55-1.71 3-1.71.55 0 1.11.11 1.6.3.75-.69 2.1-1.16 3.4-1.16s2.65.47 3.4 1.16c.49-.19 1.05-.3 1.6-.3 1.45 0 3 .77 3 1.71z"/><path d="m4.20802 36.08c-.4 0-.77066-.072-1.112-.216-.34133-.1493-.64-.3547-.896-.616-.25066-.2613-.44533-.5653-.584-.912-.13866-.3467-.208-.7173-.208-1.112 0-.4.06934-.7733.208-1.12.13867-.3467.33334-.648.584-.904.256-.2613.552-.464.888-.608.34134-.1493.712-.224 1.112-.224.43734 0 .82134.0747 1.152.224.33067.1493.624.352.88.608l-.52.52c-.176-.1973-.392-.352-.648-.464-.25066-.112-.53866-.168-.864-.168-.29333 0-.56266.0533-.808.16-.24533.1013-.45866.248-.64.44-.18133.192-.32266.4187-.424.68-.096.2613-.144.5467-.144.856s.048.5947.144.856c.10134.2613.24267.488.424.68.18134.192.39467.3413.64.448.24534.1013.51467.152.808.152.34667 0 .648-.056.904-.168.256-.1173.472-.2747.648-.472l.52.512c-.256.2667-.55733.4747-.904.624-.34133.1493-.728.224-1.16.224zm3.01982-.08v-5.712h.72v5.712zm3.54946.08c-.3467 0-.6614-.0853-.94403-.256-.28266-.176-.50666-.4133-.672-.712-.16-.2987-.24-.6347-.24-1.008s.08-.7093.24-1.008c.16534-.2987.38667-.536.664-.712.28263-.176.60003-.264.95203-.264.288 0 .544.0613.768.184.2293.1173.4133.2827.552.496.1386.208.216.4507.232.728v1.144c-.016.272-.0934.5147-.232.728-.1334.2133-.3147.3813-.544.504-.224.1173-.4827.176-.776.176zm.12-.68c.3573 0 .6453-.12.864-.36.2186-.2453.328-.5573.328-.936 0-.2613-.0507-.488-.152-.68-.096-.1973-.2347-.3493-.416-.456-.1814-.112-.392-.168-.632-.168s-.4534.056-.64.168c-.1814.112-.32536.2667-.43203.464-.10133.192-.152.4133-.152.664 0 .256.05067.4827.152.68.10667.192.25333.344.44003.456.1866.112.4.168.64.168zm1.144.6v-1.024l.136-.928-.136-.92v-.928h.728v3.8zm3.1442.08c-.2133 0-.416-.0267-.608-.08-.1866-.0587-.36-.1387-.52-.24-.16-.1067-.2986-.232-.416-.376l.464-.464c.1387.1707.2987.2987.48.384.1814.08.384.12.608.12s.3974-.0373.52-.112c.1227-.08.184-.1893.184-.328s-.0506-.2453-.152-.32c-.096-.08-.2213-.144-.376-.192-.1546-.0533-.32-.104-.496-.152-.1706-.0533-.3333-.12-.488-.2-.1546-.08-.2826-.1893-.384-.328-.096-.1387-.144-.3227-.144-.552s.056-.4267.168-.592c.112-.1707.2667-.3013.464-.392.2027-.0907.4454-.136.728-.136.2987 0 .5627.0533.792.16.2347.1013.4267.256.576.464l-.464.464c-.1066-.1387-.24-.2453-.4-.32-.1546-.0747-.3306-.112-.528-.112-.208 0-.368.0373-.48.112-.1066.0693-.16.168-.16.296s.048.2267.144.296.2214.128.376.176c.16.048.3254.0987.496.152.1707.048.3334.1147.488.2.1547.0853.28.2.376.344.1014.144.152.3333.152.568 0 .3573-.128.64-.384.848-.2506.208-.5893.312-1.016.312zm3.5741 0c-.2133 0-.416-.0267-.608-.08-.1867-.0587-.36-.1387-.52-.24-.16-.1067-.2987-.232-.416-.376l.464-.464c.1387.1707.2987.2987.48.384.1813.08.384.12.608.12s.3973-.0373.52-.112c.1227-.08.184-.1893.184-.328s-.0507-.2453-.152-.32c-.096-.08-.2213-.144-.376-.192-.1547-.0533-.32-.104-.496-.152-.1707-.0533-.3333-.12-.488-.2s-.2827-.1893-.384-.328c-.096-.1387-.144-.3227-.144-.552s.056-.4267.168-.592c.112-.1707.2667-.3013.464-.392.2027-.0907.4453-.136.728-.136.2987 0 .5627.0533.792.16.2347.1013.4267.256.576.464l-.464.464c-.1067-.1387-.24-.2453-.4-.32-.1547-.0747-.3307-.112-.528-.112-.208 0-.368.0373-.48.112-.1067.0693-.16.168-.16.296s.048.2267.144.296.2213.128.376.176c.16.048.3253.0987.496.152.1707.048.3333.1147.488.2s.28.2.376.344c.1013.144.152.3333.152.568 0 .3573-.128.64-.384.848-.2507.208-.5893.312-1.016.312zm4.126 0c-.3786 0-.72-.0853-1.024-.256-.304-.176-.544-.4133-.72-.712s-.264-.6373-.264-1.016c0-.3733.0854-.7093.256-1.008.176-.2987.4107-.5333.704-.704.2987-.176.632-.264 1-.264.352 0 .6614.08.928.24.272.16.4827.3813.632.664.1547.2827.232.6027.232.96 0 .0533-.0026.112-.008.176-.0053.0587-.016.128-.032.208h-3.208v-.6h2.824l-.264.232c0-.256-.0453-.472-.136-.648-.0906-.1813-.2186-.32-.384-.416-.1653-.1013-.3653-.152-.6-.152-.2453 0-.4613.0533-.648.16-.1866.1067-.3306.256-.432.448-.1013.192-.152.4187-.152.68 0 .2667.0534.5013.16.704.1067.1973.2587.352.456.464.1974.1067.424.16.68.16.2134 0 .408-.0373.584-.112.1814-.0747.336-.1867.464-.336l.464.472c-.1813.2133-.4053.376-.672.488-.2613.112-.5413.168-.84.168zm3.8971 0c-.2133 0-.416-.0267-.608-.08-.1867-.0587-.36-.1387-.52-.24-.16-.1067-.2987-.232-.416-.376l.464-.464c.1387.1707.2987.2987.48.384.1813.08.384.12.608.12s.3973-.0373.52-.112c.1227-.08.184-.1893.184-.328s-.0507-.2453-.152-.32c-.096-.08-.2213-.144-.376-.192-.1547-.0533-.32-.104-.496-.152-.1707-.0533-.3333-.12-.488-.2s-.2827-.1893-.384-.328c-.096-.1387-.144-.3227-.144-.552s.056-.4267.168-.592c.112-.1707.2667-.3013.464-.392.2027-.0907.4453-.136.728-.136.2987 0 .5627.0533.792.16.2347.1013.4267.256.576.464l-.464.464c-.1067-.1387-.24-.2453-.4-.32-.1547-.0747-.3307-.112-.528-.112-.208 0-.368.0373-.48.112-.1067.0693-.16.168-.16.296s.048.2267.144.296.2213.128.376.176c.16.048.3253.0987.496.152.1707.048.3333.1147.488.2s.28.2.376.344c.1013.144.152.3333.152.568 0 .3573-.128.64-.384.848-.2507.208-.5893.312-1.016.312z"/></g></svg>