<svg fill="none" height="40" viewBox="0 0 26 40" width="26" xmlns="http://www.w3.org/2000/svg"><g fill="#fc7643"><path d="m2.94668 28h19.59922c.7426 0 1.4547-.295 1.9798-.8201.5251-.525.8201-1.2372.8201-1.9798v-12.5995c.0011-.1842-.0343-.3669-.1039-.5374-.0697-.1706-.1723-.3257-.3021-.4566l-11.1996-11.199506c-.2622-.260741-.6171-.407094-.9869-.407094-.3699 0-.7247.146353-.987.407094l-11.199527 11.199506c-.132278.1297-.237512.2843-.309604.4549-.072093.1707-.109611.3539-.110379.5391v12.5995c0 .7426.294987 1.4548.820068 1.9798.525082.5251 1.237242.8201 1.979822.8201zm5.91326-1.7215c0-3.1982 0-5.129 0-8.0789 0-.5523.44771-1.0004 1-1.0004h5.78816c.5523 0 1 .4477 1 1v8.0793zm-6.953-13.3588 10.84636-11.18354 10.9069 11.10824v12.4341c0 .5523-.4477 1-1 1h-4.3141v-8.0781c0-.7426-.295-1.4548-.8201-1.9798-.5251-.5251-1.2372-.8201-1.9798-.8201h-5.5998c-.74258 0-1.45474.295-1.97982.8201-.52508.525-.82007 1.2372-.82007 1.9798v8.0781h-4.23957c-.55229 0-1-.4477-1-1z"/><path d="m2.50615 38v-5.552h.752v5.552zm3.584 0v-5.552h.752v5.552zm-3.072-2.528v-.688h3.256v.688zm6.90444 2.608c-.37334 0-.70934-.088-1.008-.264-.29867-.176-.536-.4133-.712-.712-.176-.304-.264-.6427-.264-1.016 0-.368.088-.6987.264-.992.176-.2987.41333-.536.712-.712.29866-.176.63466-.264 1.008-.264.36801 0 .70131.088 1.00001.264.304.1707.544.4053.72.704s.264.632.264 1c0 .3733-.088.712-.264 1.016-.176.2987-.416.536-.72.712-.2987.176-.632.264-1.00001.264zm0-.696c.24001 0 .45331-.056.64001-.168s.3333-.264.44-.456c.1067-.1973.16-.4213.16-.672 0-.2453-.056-.464-.168-.656-.1067-.192-.2533-.3413-.44-.448-.1813-.112-.392-.168-.63201-.168-.24 0-.45334.056-.64.168-.18667.1067-.33334.256-.44.448-.10667.192-.16.4107-.16.656 0 .2507.05333.4747.16.672.10666.192.25333.344.44.456.18666.112.4.168.64.168zm2.95521.616v-3.8h.72v3.8zm2.568 0v-2.296c0-.2827-.088-.504-.264-.664-.1706-.1653-.3866-.248-.648-.248-.176 0-.3333.0373-.472.112-.1386.0747-.2506.1787-.336.312-.0853.1333-.128.2933-.128.48l-.296-.144c0-.288.0614-.5387.184-.752.128-.2133.3014-.3787.52-.496.2187-.1227.464-.184.736-.184.2667 0 .5067.0587.72.176.2187.1173.3894.2827.512.496.128.2133.192.4667.192.76v2.448zm2.568 0v-2.296c0-.2827-.088-.504-.264-.664-.1706-.1653-.384-.248-.64-.248-.176 0-.336.0373-.48.112-.1386.0747-.2506.1787-.336.312-.0853.1333-.128.2933-.128.48l-.408-.144c.016-.2933.0934-.544.232-.752.144-.2133.328-.3787.552-.496.224-.1227.4694-.184.736-.184.2774 0 .5254.0587.744.176.2187.1173.392.2827.52.496.1334.2133.2.4693.2.768v2.44zm3.6278.08c-.3787 0-.72-.0853-1.024-.256-.304-.176-.544-.4133-.72-.712s-.264-.6373-.264-1.016c0-.3733.0853-.7093.256-1.008.176-.2987.4107-.5333.704-.704.2987-.176.632-.264 1-.264.352 0 .6613.08.928.24.272.16.4827.3813.632.664.1547.2827.232.6027.232.96 0 .0533-.0027.112-.008.176-.0053.0587-.016.128-.032.208h-3.208v-.6h2.824l-.264.232c0-.256-.0453-.472-.136-.648-.0907-.1813-.2187-.32-.384-.416-.1653-.1013-.3653-.152-.6-.152-.2453 0-.4613.0533-.648.16s-.3307.256-.432.448-.152.4187-.152.68c0 .2667.0533.5013.16.704.1067.1973.2587.352.456.464.1973.1067.424.16.68.16.2133 0 .408-.0373.584-.112.1813-.0747.336-.1867.464-.336l.464.472c-.1813.2133-.4053.376-.672.488-.2613.112-.5413.168-.84.168z"/></g></svg>