<svg fill="none" height="57" viewBox="0 0 51 57" width="51" xmlns="http://www.w3.org/2000/svg"><rect fill="#fff" height="29" rx="14.5" width="29" x="12.2464" y="2.21826"/><path d="m26.3397 23.2183v-12.654h2.412v12.654zm-2.484-10.53v-2.124h4.716v2.124z" fill="#fc7643"/><rect height="29" rx="14.5" stroke="#fc7643" stroke-width="3" width="29" x="12.2464" y="2.21826"/><path d="m14.0929 44.7983c-.4 0-.7707-.072-1.112-.216-.3414-.1494-.64-.3547-.896-.616-.2507-.2614-.4454-.5654-.584-.912-.1387-.3467-.208-.7174-.208-1.112 0-.4.0693-.7734.208-1.12.1386-.3467.3333-.648.584-.904.256-.2614.552-.464.888-.608.3413-.1494.712-.224 1.112-.224.4373 0 .8213.0746 1.152.224.3306.1493.624.352.88.608l-.52.52c-.176-.1974-.392-.352-.648-.464-.2507-.112-.5387-.168-.864-.168-.2934 0-.5627.0533-.808.16-.2454.1013-.4587.248-.64.44-.1814.192-.3227.4186-.424.68-.096.2613-.144.5466-.144.856 0 .3093.048.5946.144.856.1013.2613.2426.488.424.68.1813.192.3946.3413.64.448.2453.1013.5146.152.808.152.3466 0 .648-.056.904-.168.256-.1174.472-.2747.648-.472l.52.512c-.256.2666-.5574.4746-.904.624-.3414.1493-.728.224-1.16.224zm4.623 0c-.3734 0-.7094-.088-1.008-.264-.2987-.176-.536-.4134-.712-.712-.176-.304-.264-.6427-.264-1.016 0-.368.088-.6987.264-.992.176-.2987.4133-.536.712-.712.2986-.176.6346-.264 1.008-.264.368 0 .7013.088 1 .264.304.1706.544.4053.72.704.176.2986.264.632.264 1 0 .3733-.088.712-.264 1.016-.176.2986-.416.536-.72.712-.2987.176-.632.264-1 .264zm0-.696c.24 0 .4533-.056.64-.168.1866-.112.3333-.264.44-.456.1066-.1974.16-.4214.16-.672 0-.2454-.056-.464-.168-.656-.1067-.192-.2534-.3414-.44-.448-.1814-.112-.392-.168-.632-.168s-.4534.056-.64.168c-.1867.1066-.3334.256-.44.448-.1067.192-.16.4106-.16.656 0 .2506.0533.4746.16.672.1066.192.2533.344.44.456.1866.112.4.168.64.168zm5.6432.616v-2.216c0-.288-.0907-.5254-.272-.712-.1813-.1867-.416-.28-.704-.28-.192 0-.3627.0426-.512.128-.1493.0853-.2667.2026-.352.352-.0853.1493-.128.32-.128.512l-.296-.168c0-.288.064-.544.192-.768s.3067-.4.536-.528c.2293-.1334.488-.2.776-.2s.5413.072.76.216c.224.144.4.3333.528.568.128.2293.192.4746.192.736v2.36zm-2.688 0v-3.8h.72v3.8zm5.08 0v-5.392h.72v5.392zm-.936-3.144v-.656h2.592v.656zm4.9561 3.224c-.3467 0-.6614-.0854-.944-.256-.2827-.176-.5067-.4134-.672-.712-.16-.2987-.24-.6347-.24-1.008 0-.3734.08-.7094.24-1.008.1653-.2987.3866-.536.664-.712.2826-.176.6-.264.952-.264.288 0 .544.0613.768.184.2293.1173.4133.2826.552.496.1386.208.216.4506.232.728v1.144c-.016.272-.0934.5146-.232.728-.1334.2133-.3147.3813-.544.504-.224.1173-.4827.176-.776.176zm.12-.68c.3573 0 .6453-.12.864-.36.2186-.2454.328-.5574.328-.936 0-.2614-.0507-.488-.152-.68-.096-.1974-.2347-.3494-.416-.456-.1814-.112-.392-.168-.632-.168s-.4534.056-.64.168c-.1814.112-.3254.2666-.432.464-.1014.192-.152.4133-.152.664 0 .256.0506.4826.152.68.1066.192.2533.344.44.456.1866.112.4.168.64.168zm1.144.6v-1.024l.136-.928-.136-.92v-.928h.728v3.8zm3.6722.08c-.3733 0-.712-.088-1.016-.264-.2986-.176-.536-.4134-.712-.712-.1706-.304-.256-.64-.256-1.008 0-.3734.0854-.7094.256-1.008.176-.2987.4134-.5334.712-.704.304-.176.6427-.264 1.016-.264.2934 0 .5654.056.816.168.2507.1066.4667.264.648.472l-.48.48c-.1173-.1387-.2613-.2427-.432-.312-.1653-.0747-.3493-.112-.552-.112-.24 0-.4533.056-.64.168-.1866.1066-.3333.256-.44.448-.1066.192-.16.4133-.16.664 0 .2506.0534.472.16.664.1067.192.2534.344.44.456.1867.112.4.168.64.168.2027 0 .3867-.0347.552-.104.1707-.0747.3174-.1814.44-.32l.472.48c-.176.2026-.392.36-.648.472-.2506.112-.5226.168-.816.168zm2.8752-.08v-5.392h.72v5.392zm-.936-3.144v-.656h2.592v.656zm-23.5055 13.144v-.688h1.544c.4106 0 .7706-.088 1.08-.264.3093-.1814.5493-.4294.72-.744.176-.3147.264-.6774.264-1.088 0-.4054-.088-.7654-.264-1.08-.176-.3147-.4187-.56-.728-.736-.3094-.176-.6667-.264-1.072-.264h-1.536v-.688h1.552c.4053 0 .7786.0693 1.12.208.3466.1386.6453.3333.896.584.256.2506.4533.544.592.88.144.336.216.704.216 1.104 0 .3946-.072.7626-.216 1.104-.1387.336-.3334.6293-.584.88-.2507.2506-.5494.4453-.896.584-.3414.1386-.712.208-1.112.208zm-.496 0v-5.552h.752v5.552zm7.7138.08c-.3786 0-.72-.0854-1.024-.256-.304-.176-.544-.4134-.72-.712-.176-.2987-.264-.6374-.264-1.016 0-.3734.0854-.7094.256-1.008.176-.2987.4107-.5334.704-.704.2987-.176.632-.264 1-.264.352 0 .6614.08.928.24.272.16.4827.3813.632.664.1547.2826.232.6026.232.96 0 .0533-.0026.112-.008.176-.0053.0586-.016.128-.032.208h-3.208v-.6h2.824l-.264.232c0-.256-.0453-.472-.136-.648-.0906-.1814-.2186-.32-.384-.416-.1653-.1014-.3653-.152-.6-.152-.2453 0-.4613.0533-.648.16-.1866.1066-.3306.256-.432.448-.1013.192-.152.4186-.152.68 0 .2666.0534.5013.16.704.1067.1973.2587.352.456.464.1974.1066.424.16.68.16.2134 0 .408-.0374.584-.112.1814-.0747.336-.1867.464-.336l.464.472c-.1813.2133-.4053.376-.672.488-.2613.112-.5413.168-.84.168zm3.1559-.08v-5.392h.72v5.392zm-.936-3.144v-.656h2.592v.656zm4.9561 3.224c-.3466 0-.6613-.0854-.944-.256-.2826-.176-.5066-.4134-.672-.712-.16-.2987-.24-.6347-.24-1.008 0-.3734.08-.7094.24-1.008.1654-.2987.3867-.536.664-.712.2827-.176.6-.264.952-.264.288 0 .544.0613.768.184.2294.1173.4134.2826.552.496.1387.208.216.4506.232.728v1.144c-.016.272-.0933.5146-.232.728-.1333.2133-.3146.3813-.544.504-.224.1173-.4826.176-.776.176zm.12-.68c.3574 0 .6454-.12.864-.36.2187-.2454.328-.5574.328-.936 0-.2614-.0506-.488-.152-.68-.096-.1974-.2346-.3494-.416-.456-.1813-.112-.392-.168-.632-.168s-.4533.056-.64.168c-.1813.112-.3253.2666-.432.464-.1013.192-.152.4133-.152.664 0 .256.0507.4826.152.68.1067.192.2534.344.44.456.1867.112.4.168.64.168zm1.144.6v-1.024l.136-.928-.136-.92v-.928h.728v3.8zm1.9443 0v-3.8h.72v3.8zm.36-4.56c-.1334 0-.2427-.0427-.328-.128-.0854-.0907-.128-.2027-.128-.336 0-.128.0426-.2347.128-.32.0853-.0907.1946-.136.328-.136.1333 0 .2426.0453.328.136.0853.0853.128.192.128.32 0 .1333-.0427.2453-.128.336-.0854.0853-.1947.128-.328.128zm1.581 4.56v-5.712h.72v5.712zm3.1415.08c-.2134 0-.416-.0267-.608-.08-.1867-.0587-.36-.1387-.52-.24-.16-.1067-.2987-.232-.416-.376l.464-.464c.1386.1706.2986.2986.48.384.1813.08.384.12.608.12s.3973-.0374.52-.112c.1226-.08.184-.1894.184-.328 0-.1387-.0507-.2454-.152-.32-.096-.08-.2214-.144-.376-.192-.1547-.0534-.32-.104-.496-.152-.1707-.0534-.3334-.12-.488-.2-.1547-.08-.2827-.1894-.384-.328-.096-.1387-.144-.3227-.144-.552 0-.2294.056-.4267.168-.592.112-.1707.2666-.3014.464-.392.2026-.0907.4453-.136.728-.136.2986 0 .5626.0533.792.16.2346.1013.4266.256.576.464l-.464.464c-.1067-.1387-.24-.2454-.4-.32-.1547-.0747-.3307-.112-.528-.112-.208 0-.368.0373-.48.112-.1067.0693-.16.168-.16.296s.048.2266.144.296c.096.0693.2213.128.376.176.16.048.3253.0986.496.152.1706.048.3333.1146.488.2.1546.0853.28.2.376.344.1013.144.152.3333.152.568 0 .3573-.128.64-.384.848-.2507.208-.5894.312-1.016.312z" fill="#273248"/></svg>