<svg fill="none" height="57" viewBox="0 0 51 57" width="51" xmlns="http://www.w3.org/2000/svg"><rect fill="#fff" height="29" rx="14.5" width="29" x="11.5799" y="2.21826"/><path d="m21.5733 21.8143 4.77-4.986c.336-.36.606-.678.81-.954.216-.288.372-.558.468-.81.096-.264.144-.528.144-.792 0-.528-.174-.942-.522-1.242-.336-.3-.774-.45-1.314-.45-.552 0-1.044.144-1.476.432-.42.288-.816.744-1.188 1.368l-1.674-1.422c.504-.852 1.128-1.494 1.872-1.926.756-.444 1.62-.666 2.592-.666.828 0 1.548.162 2.16.486.624.324 1.104.774 1.44 1.35s.504 1.248.504 2.016c0 .516-.066.984-.198 1.404-.12.42-.33.84-.63 1.26-.288.408-.69.87-1.206 1.386l-3.474 3.546zm0 1.404v-1.404l2.088-.72h6.768v2.124z" fill="#fc7643"/><rect height="29" rx="14.5" stroke="#fc7643" stroke-width="3" width="29" x="11.5799" y="2.21826"/><path d="m4.53021 44.7183v-5.552h.752v5.552zm.512 0v-.688h3.184v.688zm0-2.512v-.656h2.92v.656zm0-2.352v-.688h3.144v.688zm5.77639 4.944c-.352 0-.6666-.0854-.94395-.256-.27733-.176-.49867-.4134-.664-.712-.16-.2987-.24-.6347-.24-1.008 0-.3734.08-.7094.24-1.008.16533-.2987.38667-.536.664-.712.27735-.176.59195-.264.94395-.264.2827 0 .5387.0613.768.184.2294.1173.4134.2826.552.496.144.208.224.4506.24.728v1.144c-.016.272-.0933.5146-.232.728-.1386.2133-.3226.3813-.552.504-.2293.1173-.488.176-.776.176zm.12-.68c.24 0 .448-.056.624-.168.1814-.112.3227-.264.424-.456.1014-.1974.152-.4214.152-.672 0-.2614-.0533-.488-.16-.68-.1013-.192-.2426-.344-.424-.456-.176-.112-.384-.168-.624-.168s-.4506.056-.632.168c-.1813.112-.32528.2666-.43195.464-.10133.192-.152.4133-.152.664 0 .256.05067.4826.152.68.10667.192.25065.344.43195.456.1867.112.4.168.64.168zm1.88.6h-.728v-1.024l.136-.928-.136-.92v-2.84h.728zm2.7363.08c-.3093 0-.5893-.0694-.84-.208-.2453-.144-.4373-.3414-.576-.592-.1387-.2507-.208-.5414-.208-.872v-2.208h.72v2.176c0 .208.0347.3893.104.544.0747.1493.1813.264.32.344s.3013.12.488.12c.2827 0 .504-.088.664-.264.16-.1814.24-.4294.24-.744v-2.176h.72v2.208c0 .3306-.0693.6213-.208.872-.1387.2506-.3307.448-.576.592-.24.1386-.5227.208-.848.208zm4.493 0c-.3733 0-.712-.088-1.016-.264-.2987-.176-.536-.4134-.712-.712-.1707-.304-.256-.64-.256-1.008 0-.3734.0853-.7094.256-1.008.176-.2987.4133-.5334.712-.704.304-.176.6427-.264 1.016-.264.2933 0 .5653.056.816.168.2507.1066.4667.264.648.472l-.48.48c-.1173-.1387-.2613-.2427-.432-.312-.1653-.0747-.3493-.112-.552-.112-.24 0-.4533.056-.64.168-.1867.1066-.3333.256-.44.448s-.16.4133-.16.664c0 .2506.0533.472.16.664s.2533.344.44.456.4.168.64.168c.2027 0 .3867-.0347.552-.104.1707-.0747.3173-.1814.44-.32l.472.48c-.176.2026-.392.36-.648.472-.2507.112-.5227.168-.816.168zm3.8759 0c-.3466 0-.6613-.0854-.944-.256-.2826-.176-.5066-.4134-.672-.712-.16-.2987-.24-.6347-.24-1.008 0-.3734.08-.7094.24-1.008.1654-.2987.3867-.536.664-.712.2827-.176.6-.264.952-.264.288 0 .544.0613.768.184.2294.1173.4134.2826.552.496.1387.208.216.4506.232.728v1.144c-.016.272-.0933.5146-.232.728-.1333.2133-.3146.3813-.544.504-.224.1173-.4826.176-.776.176zm.12-.68c.3574 0 .6454-.12.864-.36.2187-.2454.328-.5574.328-.936 0-.2614-.0506-.488-.152-.68-.096-.1974-.2346-.3494-.416-.456-.1813-.112-.392-.168-.632-.168s-.4533.056-.64.168c-.1813.112-.3253.2666-.432.464-.1013.192-.152.4133-.152.664 0 .256.0507.4826.152.68.1067.192.2534.344.44.456.1867.112.4.168.64.168zm1.144.6v-1.024l.136-.928-.136-.92v-.928h.728v3.8zm2.5047 0v-5.392h.72v5.392zm-.936-3.144v-.656h2.592v.656zm3.4653 3.144v-3.8h.72v3.8zm.36-4.56c-.1334 0-.2427-.0427-.328-.128-.0854-.0907-.128-.2027-.128-.336 0-.128.0426-.2347.128-.32.0853-.0907.1946-.136.328-.136.1333 0 .2426.0453.328.136.0853.0853.128.192.128.32 0 .1333-.0427.2453-.128.336-.0854.0853-.1947.128-.328.128zm3.317 4.64c-.3733 0-.7093-.088-1.008-.264-.2986-.176-.536-.4134-.712-.712-.176-.304-.264-.6427-.264-1.016 0-.368.088-.6987.264-.992.176-.2987.4134-.536.712-.712.2987-.176.6347-.264 1.008-.264.368 0 .7014.088 1 .264.304.1706.544.4053.72.704.176.2986.264.632.264 1 0 .3733-.088.712-.264 1.016-.176.2986-.416.536-.72.712-.2986.176-.632.264-1 .264zm0-.696c.24 0 .4534-.056.64-.168.1867-.112.3334-.264.44-.456.1067-.1974.16-.4214.16-.672 0-.2454-.056-.464-.168-.656-.1066-.192-.2533-.3414-.44-.448-.1813-.112-.392-.168-.632-.168s-.4533.056-.64.168c-.1866.1066-.3333.256-.44.448-.1066.192-.16.4106-.16.656 0 .2506.0534.4746.16.672.1067.192.2534.344.44.456.1867.112.4.168.64.168zm5.6433.616v-2.216c0-.288-.0907-.5254-.272-.712-.1813-.1867-.416-.28-.704-.28-.192 0-.3627.0426-.512.128-.1493.0853-.2667.2026-.352.352-.0853.1493-.128.32-.128.512l-.296-.168c0-.288.064-.544.192-.768s.3067-.4.536-.528c.2293-.1334.488-.2.776-.2s.5413.072.76.216c.224.144.4.3333.528.568.128.2293.192.4746.192.736v2.36zm-2.688 0v-3.8h.72v3.8zm6.1588.08c-.3467 0-.6613-.0854-.944-.256-.2827-.176-.5067-.4134-.672-.712-.16-.2987-.24-.6347-.24-1.008 0-.3734.08-.7094.24-1.008.1653-.2987.3867-.536.664-.712.2827-.176.6-.264.952-.264.288 0 .544.0613.768.184.2293.1173.4133.2826.552.496.1387.208.216.4506.232.728v1.144c-.016.272-.0933.5146-.232.728-.1333.2133-.3147.3813-.544.504-.224.1173-.4827.176-.776.176zm.12-.68c.3573 0 .6453-.12.864-.36.2187-.2454.328-.5574.328-.936 0-.2614-.0507-.488-.152-.68-.096-.1974-.2347-.3494-.416-.456-.1813-.112-.392-.168-.632-.168s-.4533.056-.64.168c-.1813.112-.3253.2666-.432.464-.1013.192-.152.4133-.152.664 0 .256.0507.4826.152.68.1067.192.2533.344.44.456s.4.168.64.168zm1.144.6v-1.024l.136-.928-.136-.92v-.928h.728v3.8zm1.9363 0v-5.712h.72v5.712zm-41.39399 10v-.656h1.68c.32 0 .57067-.0934.752-.28.18134-.192.272-.4214.272-.688 0-.1814-.04-.344-.12-.488-.08-.1494-.19733-.2667-.352-.352-.14933-.0854-.32533-.128-.528-.128h-1.704v-.656h1.592c.26667 0 .47734-.0694.632-.208.16-.144.24-.3494.24-.616 0-.2667-.08266-.4694-.248-.608-.16533-.144-.384-.216-.656-.216h-1.56v-.656h1.576c.36267 0 .664.0666.904.2.24534.128.42934.2986.552.512.128.2133.192.448.192.704 0 .2986-.08266.56-.248.784-.16.224-.39733.4-.712.528l.064-.24c.35734.128.63467.3226.832.584.20267.256.304.56.304.912 0 .2933-.072.5573-.216.792-.144.2346-.352.424-.624.568-.26666.1386-.59466.208-.984.208zm-.504 0v-5.552h.752v5.552zm6.63239.08c-.3467 0-.6613-.0854-.944-.256-.28268-.176-.50668-.4134-.67201-.712-.16-.2987-.24-.6347-.24-1.008 0-.3734.08-.7094.24-1.008.16533-.2987.38666-.536.664-.712.28271-.176.60001-.264.95201-.264.288 0 .544.0613.768.184.2293.1173.4133.2826.552.496.1387.208.216.4506.232.728v1.144c-.016.272-.0933.5146-.232.728-.1333.2133-.3147.3813-.544.504-.224.1173-.4827.176-.776.176zm.12-.68c.3573 0 .6453-.12.864-.36.2187-.2454.328-.5574.328-.936 0-.2614-.0507-.488-.152-.68-.096-.1974-.2347-.3494-.416-.456-.1813-.112-.392-.168-.632-.168s-.4533.056-.64.168c-.1813.112-.3253.2666-.43201.464-.10134.192-.152.4133-.152.664 0 .256.05066.4826.152.68.10671.192.25331.344.44001.456s.4.168.64.168zm1.144.6v-1.024l.136-.928-.136-.92v-.928h.728v3.8zm3.6722.08c-.3733 0-.712-.088-1.016-.264-.2986-.176-.536-.4134-.712-.712-.1706-.304-.256-.64-.256-1.008 0-.3734.0854-.7094.256-1.008.176-.2987.4134-.5334.712-.704.304-.176.6427-.264 1.016-.264.2934 0 .5654.056.816.168.2507.1066.4667.264.648.472l-.48.48c-.1173-.1387-.2613-.2427-.432-.312-.1653-.0747-.3493-.112-.552-.112-.24 0-.4533.056-.64.168-.1866.1066-.3333.256-.44.448-.1066.192-.16.4133-.16.664 0 .2506.0534.472.16.664.1067.192.2534.344.44.456.1867.112.4.168.64.168.2027 0 .3867-.0347.552-.104.1707-.0747.3174-.1814.44-.32l.472.48c-.176.2026-.392.36-.648.472-.2506.112-.5226.168-.816.168zm4.7701-.08-1.776-1.944 1.76-1.856h.872l-1.96 2.048.032-.416 2 2.168zm-2.432 0v-5.712h.72v5.712zm5.5016 1.672c-.3893 0-.736-.072-1.04-.216-.2986-.144-.5386-.3467-.72-.608l.464-.472c.1547.1973.3387.3466.552.448.2134.1066.4667.16.76.16.3894 0 .696-.104.92-.312.2294-.2027.344-.4774.344-.824v-.944l.128-.856-.128-.848v-1h.72v3.648c0 .3626-.0853.68-.256.952-.1653.272-.4.4853-.704.64-.2986.1546-.6453.232-1.04.232zm0-1.736c-.3466 0-.6586-.0827-.936-.248-.272-.1654-.488-.392-.648-.68-.16-.2934-.24-.6214-.24-.984 0-.3627.08-.6854.24-.968.16-.288.376-.5147.648-.68.2774-.1707.5894-.256.936-.256.2987 0 .5627.0586.792.176.2294.1173.4107.2826.544.496.1387.208.2134.4533.224.736v1.008c-.016.2773-.0933.5226-.232.736-.1333.208-.3146.3706-.544.488-.2293.1173-.4906.176-.784.176zm.144-.68c.2347 0 .44-.0507.616-.152.1814-.1014.32-.2427.416-.424.096-.1867.144-.4027.144-.648 0-.2454-.0506-.4587-.152-.64-.096-.1867-.232-.3307-.408-.432-.176-.1067-.384-.16-.624-.16s-.4506.0533-.632.16c-.1813.1013-.3253.2453-.432.432-.1013.1813-.152.392-.152.632s.0507.4533.152.64c.1067.1866.2507.3333.432.44.1867.1013.4.152.64.152zm3.0728.744v-3.8h.72v3.8zm.72-2.168-.272-.12c0-.4854.112-.872.336-1.16s.5467-.432.968-.432c.192 0 .3654.0346.52.104.1547.064.2987.1733.432.328l-.472.488c-.08-.0854-.168-.1467-.264-.184-.096-.0374-.208-.056-.336-.056-.2666 0-.4853.0853-.656.256-.1706.1706-.256.4293-.256.776zm4.262 2.248c-.3734 0-.7094-.088-1.008-.264-.2987-.176-.536-.4134-.712-.712-.176-.304-.264-.6427-.264-1.016 0-.368.088-.6987.264-.992.176-.2987.4133-.536.712-.712.2986-.176.6346-.264 1.008-.264.368 0 .7013.088 1 .264.304.1706.544.4053.72.704.176.2986.264.632.264 1 0 .3733-.088.712-.264 1.016-.176.2986-.416.536-.72.712-.2987.176-.632.264-1 .264zm0-.696c.24 0 .4533-.056.64-.168.1866-.112.3333-.264.44-.456.1066-.1974.16-.4214.16-.672 0-.2454-.056-.464-.168-.656-.1067-.192-.2534-.3414-.44-.448-.1814-.112-.392-.168-.632-.168s-.4534.056-.64.168c-.1867.1066-.3334.256-.44.448-.1067.192-.16.4106-.16.656 0 .2506.0533.4746.16.672.1066.192.2533.344.44.456.1866.112.4.168.64.168zm4.4832.696c-.3093 0-.5893-.0694-.84-.208-.2453-.144-.4373-.3414-.576-.592-.1386-.2507-.208-.5414-.208-.872v-2.208h.72v2.176c0 .208.0347.3893.104.544.0747.1493.1814.264.32.344.1387.08.3014.12.488.12.2827 0 .504-.088.664-.264.16-.1814.24-.4294.24-.744v-2.176h.72v2.208c0 .3306-.0693.6213-.208.872-.1386.2506-.3306.448-.576.592-.24.1386-.5226.208-.848.208zm5.445-.08v-2.216c0-.288-.0906-.5254-.272-.712-.1813-.1867-.416-.28-.704-.28-.192 0-.3626.0426-.512.128-.1493.0853-.2666.2026-.352.352-.0853.1493-.128.32-.128.512l-.296-.168c0-.288.064-.544.192-.768s.3067-.4.536-.528c.2294-.1334.488-.2.776-.2s.5414.072.76.216c.224.144.4.3333.528.568.128.2293.192.4746.192.736v2.36zm-2.688 0v-3.8h.72v3.8zm6.1508.08c-.352 0-.6666-.0854-.944-.256-.2773-.176-.4986-.4134-.664-.712-.16-.2987-.24-.6347-.24-1.008 0-.3734.08-.7094.24-1.008.1654-.2987.3867-.536.664-.712.2774-.176.592-.264.944-.264.2827 0 .5387.0613.768.184.2294.1173.4134.2826.552.496.144.208.224.4506.24.728v1.144c-.016.272-.0933.5146-.232.728-.1386.2133-.3226.3813-.552.504-.2293.1173-.488.176-.776.176zm.12-.68c.24 0 .448-.056.624-.168.1814-.112.3227-.264.424-.456.1014-.1974.152-.4214.152-.672 0-.2614-.0533-.488-.16-.68-.1013-.192-.2426-.344-.424-.456-.176-.112-.384-.168-.624-.168s-.4506.056-.632.168c-.1813.112-.3253.2666-.432.464-.1013.192-.152.4133-.152.664 0 .256.0507.4826.152.68.1067.192.2507.344.432.456.1867.112.4.168.64.168zm1.88.6h-.728v-1.024l.136-.928-.136-.92v-2.84h.728z" fill="#273248"/></svg>