<svg fill="none" height="47" viewBox="0 0 51 47" width="51" xmlns="http://www.w3.org/2000/svg"><rect fill="#fff" height="29" rx="14.5" width="29" x="10.2464" y="2.21826"/><rect height="29" rx="14.5" stroke="#fc7643" stroke-width="3" width="29" x="10.2464" y="2.21826"/><path d="m19.7648 18.7543 4.32-8.19h2.7l-4.428 8.19zm0 1.44v-1.44l.9-.702h9.072v2.142zm5.976 3.024v-8.064h2.412v8.064z" fill="#fc7643"/><path d="m4.52865 44.7983c-.4 0-.77067-.072-1.112-.216-.34133-.1494-.64-.3547-.896-.616-.25067-.2614-.44533-.5654-.584-.912-.13867-.3467-.208-.7174-.208-1.112 0-.4.06933-.7734.208-1.12.13867-.3467.33333-.648.584-.904.256-.2614.552-.464.888-.608.34133-.1494.712-.224 1.112-.224.43733 0 .82133.0746 1.152.224.33067.1493.624.352.88.608l-.52.52c-.176-.1974-.392-.352-.648-.464-.25067-.112-.53867-.168-.864-.168-.29333 0-.56267.0533-.808.16-.24533.1013-.45867.248-.64.44s-.32267.4186-.424.68c-.096.2613-.144.5466-.144.856 0 .3093.048.5946.144.856.10133.2613.24267.488.424.68s.39467.3413.64.448c.24533.1013.51467.152.808.152.34667 0 .648-.056.904-.168.256-.1174.472-.2747.648-.472l.52.512c-.256.2666-.55733.4746-.904.624-.34133.1493-.728.224-1.16.224zm4.623 0c-.37333 0-.70933-.088-1.008-.264s-.536-.4134-.712-.712c-.176-.304-.264-.6427-.264-1.016 0-.368.088-.6987.264-.992.176-.2987.41333-.536.712-.712s.63467-.264 1.008-.264c.368 0 .70133.088.99995.264.304.1706.544.4053.72.704.176.2986.264.632.264 1 0 .3733-.088.712-.264 1.016-.176.2986-.416.536-.72.712-.29862.176-.63195.264-.99995.264zm0-.696c.24 0 .45333-.056.64-.168s.33335-.264.43995-.456c.1067-.1974.16-.4214.16-.672 0-.2454-.056-.464-.168-.656-.1066-.192-.25328-.3414-.43995-.448-.18133-.112-.392-.168-.632-.168s-.45333.056-.64.168c-.18667.1066-.33333.256-.44.448s-.16.4106-.16.656c0 .2506.05333.4746.16.672.10667.192.25333.344.44.456s.4.168.64.168zm5.64325.616v-2.216c0-.288-.0907-.5254-.272-.712-.1813-.1867-.416-.28-.704-.28-.192 0-.3627.0426-.512.128-.1493.0853-.2667.2026-.352.352-.0853.1493-.128.32-.128.512l-.296-.168c0-.288.064-.544.192-.768s.3067-.4.536-.528c.2293-.1334.488-.2.776-.2s.5413.072.76.216c.224.144.4.3333.528.568.128.2293.192.4746.192.736v2.36zm-2.688 0v-3.8h.72v3.8zm5.0399 0v-4.488c0-.2507.0534-.472.16-.664.112-.1974.2667-.352.464-.464.1974-.1174.424-.176.68-.176.1974 0 .3707.0346.52.104.1494.064.288.1546.416.272l-.472.472c-.0693-.0587-.1413-.1014-.216-.128-.0746-.032-.1573-.048-.248-.048-.1866 0-.3306.0586-.432.176-.1013.112-.152.264-.152.456v4.488zm-.936-3.144v-.656h3.608v.656zm3.192 3.144v-3.8h.728v3.8zm.36-4.2c-.128 0-.2346-.0427-.32-.128-.0853-.0907-.128-.2027-.128-.336 0-.128.0427-.2347.128-.32.0854-.0907.192-.136.32-.136.1387 0 .248.0453.328.136.0854.0853.128.192.128.32 0 .1333-.0426.2453-.128.336-.08.0853-.1893.128-.328.128zm1.586 4.2v-3.8h.72v3.8zm.72-2.168-.272-.12c0-.4854.112-.872.336-1.16s.5466-.432.968-.432c.192 0 .3653.0346.52.104.1546.064.2986.1733.432.328l-.472.488c-.08-.0854-.168-.1467-.264-.184-.096-.0374-.208-.056-.336-.056-.2667 0-.4854.0853-.656.256-.1707.1706-.256.4293-.256.776zm2.6665 2.168v-3.8h.72v3.8zm2.568 0v-2.296c0-.2827-.088-.504-.264-.664-.1706-.1654-.3866-.248-.648-.248-.176 0-.3333.0373-.472.112-.1386.0746-.2506.1786-.336.312-.0853.1333-.128.2933-.128.48l-.296-.144c0-.288.0614-.5387.184-.752.128-.2134.3014-.3787.52-.496.2187-.1227.464-.184.736-.184.2667 0 .5067.0586.72.176.2187.1173.3894.2826.512.496.128.2133.192.4666.192.76v2.448zm2.568 0v-2.296c0-.2827-.088-.504-.264-.664-.1706-.1654-.384-.248-.64-.248-.176 0-.336.0373-.48.112-.1386.0746-.2506.1786-.336.312-.0853.1333-.128.2933-.128.48l-.408-.144c.016-.2934.0934-.544.232-.752.144-.2134.328-.3787.552-.496.224-.1227.4694-.184.736-.184.2774 0 .5254.0586.744.176.2187.1173.392.2826.52.496.1334.2133.2.4693.2.768v2.44zm3.4838.08c-.3467 0-.6613-.0854-.944-.256-.2827-.176-.5067-.4134-.672-.712-.16-.2987-.24-.6347-.24-1.008 0-.3734.08-.7094.24-1.008.1653-.2987.3867-.536.664-.712.2827-.176.6-.264.952-.264.288 0 .544.0613.768.184.2293.1173.4133.2826.552.496.1387.208.216.4506.232.728v1.144c-.016.272-.0933.5146-.232.728-.1333.2133-.3147.3813-.544.504-.224.1173-.4827.176-.776.176zm.12-.68c.3573 0 .6453-.12.864-.36.2187-.2454.328-.5574.328-.936 0-.2614-.0507-.488-.152-.68-.096-.1974-.2347-.3494-.416-.456-.1813-.112-.392-.168-.632-.168s-.4533.056-.64.168c-.1813.112-.3253.2666-.432.464-.1013.192-.152.4133-.152.664 0 .256.0507.4826.152.68.1067.192.2533.344.44.456s.4.168.64.168zm1.144.6v-1.024l.136-.928-.136-.92v-.928h.728v3.8zm2.5046 0v-5.392h.72v5.392zm-.936-3.144v-.656h2.592v.656zm3.4653 3.144v-3.8h.72v3.8zm.36-4.56c-.1333 0-.2426-.0427-.328-.128-.0853-.0907-.128-.2027-.128-.336 0-.128.0427-.2347.128-.32.0854-.0907.1947-.136.328-.136.1334 0 .2427.0453.328.136.0854.0853.128.192.128.32 0 .1333-.0426.2453-.128.336-.0853.0853-.1946.128-.328.128zm3.3171 4.64c-.3733 0-.7093-.088-1.008-.264s-.536-.4134-.712-.712c-.176-.304-.264-.6427-.264-1.016 0-.368.088-.6987.264-.992.176-.2987.4133-.536.712-.712s.6347-.264 1.008-.264c.368 0 .7013.088 1 .264.304.1706.544.4053.72.704.176.2986.264.632.264 1 0 .3733-.088.712-.264 1.016-.176.2986-.416.536-.72.712-.2987.176-.632.264-1 .264zm0-.696c.24 0 .4533-.056.64-.168s.3333-.264.44-.456c.1067-.1974.16-.4214.16-.672 0-.2454-.056-.464-.168-.656-.1067-.192-.2533-.3414-.44-.448-.1813-.112-.392-.168-.632-.168s-.4533.056-.64.168c-.1867.1066-.3333.256-.44.448s-.16.4106-.16.656c0 .2506.0533.4746.16.672.1067.192.2533.344.44.456s.4.168.64.168zm5.6432.616v-2.216c0-.288-.0906-.5254-.272-.712-.1813-.1867-.416-.28-.704-.28-.192 0-.3626.0426-.512.128-.1493.0853-.2666.2026-.352.352-.0853.1493-.128.32-.128.512l-.296-.168c0-.288.064-.544.192-.768s.3067-.4.536-.528c.2294-.1334.488-.2.776-.2s.5414.072.76.216c.224.144.4.3333.528.568.128.2293.192.4746.192.736v2.36zm-2.688 0v-3.8h.72v3.8z" fill="#273248"/></svg>