<svg fill="none" height="57" viewBox="0 0 51 57" width="51" xmlns="http://www.w3.org/2000/svg"><rect fill="#fff" height="29" rx="14.5" width="29" x="10.9129" y="2.21826"/><path d="m24.9467 23.3983c-.852 0-1.632-.15-2.34-.45-.708-.312-1.302-.756-1.782-1.332l1.62-1.602c.24.36.582.648 1.026.864s.924.324 1.44.324c.48 0 .894-.084 1.242-.252.348-.18.618-.426.81-.738.204-.324.306-.696.306-1.116 0-.444-.102-.822-.306-1.134-.192-.312-.474-.552-.846-.72s-.816-.252-1.332-.252c-.228 0-.462.018-.702.054-.24.024-.444.066-.612.126l1.08-1.368c.3-.096.594-.174.882-.234.3-.072.576-.108.828-.108.648 0 1.23.156 1.746.468.528.3.942.732 1.242 1.296.312.552.468 1.206.468 1.962 0 .84-.198 1.578-.594 2.214-.396.624-.954 1.116-1.674 1.476-.708.348-1.542.522-2.502.522zm-1.476-6.228v-1.404l3.24-3.762 2.808-.036-3.348 3.834zm-1.944-4.482v-2.124h7.992v1.404l-1.998.72z" fill="#fc7643"/><rect height="29" rx="14.5" stroke="#fc7643" stroke-width="3" width="29" x="10.9129" y="2.21826"/><path d="m10.8641 42.5583v-.656h1.512c.208 0 .392-.0427.552-.128.1653-.0854.2933-.2054.384-.36.096-.1547.144-.3387.144-.552 0-.2134-.048-.3974-.144-.552-.0907-.1547-.2187-.2747-.384-.36-.16-.0854-.344-.128-.552-.128h-1.512v-.656h1.56c.3413 0 .6453.0693.912.208.272.1386.4853.336.64.592.16.2506.24.5493.24.896 0 .3413-.08.64-.24.896-.1547.2506-.368.448-.64.592-.2667.1386-.5707.208-.912.208zm-.504 2.16v-5.552h.752v5.552zm6.4248.08c-.3787 0-.72-.0854-1.024-.256-.304-.176-.544-.4134-.72-.712-.176-.2987-.264-.6374-.264-1.016 0-.3734.0853-.7094.256-1.008.176-.2987.4106-.5334.704-.704.2986-.176.632-.264 1-.264.352 0 .6613.08.928.24.272.16.4826.3813.632.664.1546.2826.232.6026.232.96 0 .0533-.0027.112-.008.176-.0054.0586-.016.128-.032.208h-3.208v-.6h2.824l-.264.232c0-.256-.0454-.472-.136-.648-.0907-.1814-.2187-.32-.384-.416-.1654-.1014-.3654-.152-.6-.152-.2454 0-.4614.0533-.648.16-.1867.1066-.3307.256-.432.448-.1014.192-.152.4186-.152.68 0 .2666.0533.5013.16.704.1066.1973.2586.352.456.464.1973.1066.424.16.68.16.2133 0 .408-.0374.584-.112.1813-.0747.336-.1867.464-.336l.464.472c-.1814.2133-.4054.376-.672.488-.2614.112-.5414.168-.84.168zm2.689-.08v-3.8h.72v3.8zm.72-2.168-.272-.12c0-.4854.112-.872.336-1.16s.5467-.432.968-.432c.192 0 .3654.0346.52.104.1547.064.2987.1733.432.328l-.472.488c-.08-.0854-.168-.1467-.264-.184-.096-.0374-.208-.056-.336-.056-.2666 0-.4853.0853-.656.256-.1706.1706-.256.4293-.256.776zm3.773 2.248c-.2133 0-.416-.0267-.608-.08-.1866-.0587-.36-.1387-.52-.24-.16-.1067-.2986-.232-.416-.376l.464-.464c.1387.1706.2987.2986.48.384.1814.08.384.12.608.12s.3974-.0374.52-.112c.1227-.08.184-.1894.184-.328 0-.1387-.0506-.2454-.152-.32-.096-.08-.2213-.144-.376-.192-.1546-.0534-.32-.104-.496-.152-.1706-.0534-.3333-.12-.488-.2-.1546-.08-.2826-.1894-.384-.328-.096-.1387-.144-.3227-.144-.552 0-.2294.056-.4267.168-.592.112-.1707.2667-.3014.464-.392.2027-.0907.4454-.136.728-.136.2987 0 .5627.0533.792.16.2347.1013.4267.256.576.464l-.464.464c-.1066-.1387-.24-.2454-.4-.32-.1546-.0747-.3306-.112-.528-.112-.208 0-.368.0373-.48.112-.1066.0693-.16.168-.16.296s.048.2266.144.296c.096.0693.2214.128.376.176.16.048.3254.0986.496.152.1707.048.3334.1146.488.2.1547.0853.28.2.376.344.1014.144.152.3333.152.568 0 .3573-.128.64-.384.848-.2506.208-.5893.312-1.016.312zm4.1021 0c-.3733 0-.7093-.088-1.008-.264s-.536-.4134-.712-.712c-.176-.304-.264-.6427-.264-1.016 0-.368.088-.6987.264-.992.176-.2987.4133-.536.712-.712s.6347-.264 1.008-.264c.368 0 .7013.088 1 .264.304.1706.544.4053.72.704.176.2986.264.632.264 1 0 .3733-.088.712-.264 1.016-.176.2986-.416.536-.72.712-.2987.176-.632.264-1 .264zm0-.696c.24 0 .4533-.056.64-.168s.3333-.264.44-.456c.1067-.1974.16-.4214.16-.672 0-.2454-.056-.464-.168-.656-.1067-.192-.2533-.3414-.44-.448-.1813-.112-.392-.168-.632-.168s-.4533.056-.64.168c-.1867.1066-.3333.256-.44.448s-.16.4106-.16.656c0 .2506.0533.4746.16.672.1067.192.2533.344.44.456s.4.168.64.168zm5.6432.616v-2.216c0-.288-.0906-.5254-.272-.712-.1813-.1867-.416-.28-.704-.28-.192 0-.3626.0426-.512.128-.1493.0853-.2666.2026-.352.352-.0853.1493-.128.32-.128.512l-.296-.168c0-.288.064-.544.192-.768s.3067-.4.536-.528c.2294-.1334.488-.2.776-.2s.5414.072.76.216c.224.144.4.3333.528.568.128.2293.192.4746.192.736v2.36zm-2.688 0v-3.8h.72v3.8zm6.1589.08c-.3467 0-.6614-.0854-.944-.256-.2827-.176-.5067-.4134-.672-.712-.16-.2987-.24-.6347-.24-1.008 0-.3734.08-.7094.24-1.008.1653-.2987.3866-.536.664-.712.2826-.176.6-.264.952-.264.288 0 .544.0613.768.184.2293.1173.4133.2826.552.496.1386.208.216.4506.232.728v1.144c-.016.272-.0934.5146-.232.728-.1334.2133-.3147.3813-.544.504-.224.1173-.4827.176-.776.176zm.12-.68c.3573 0 .6453-.12.864-.36.2186-.2454.328-.5574.328-.936 0-.2614-.0507-.488-.152-.68-.096-.1974-.2347-.3494-.416-.456-.1814-.112-.392-.168-.632-.168s-.4534.056-.64.168c-.1814.112-.3254.2666-.432.464-.1014.192-.152.4133-.152.664 0 .256.0506.4826.152.68.1066.192.2533.344.44.456.1866.112.4.168.64.168zm1.144.6v-1.024l.136-.928-.136-.92v-.928h.728v3.8zm1.9362 0v-5.712h.72v5.712zm-26.2422 10v-.688h1.544c.4106 0 .7706-.088 1.08-.264.3093-.1814.5493-.4294.72-.744.176-.3147.264-.6774.264-1.088 0-.4054-.088-.7654-.264-1.08-.176-.3147-.4187-.56-.728-.736-.3094-.176-.6667-.264-1.072-.264h-1.536v-.688h1.552c.4053 0 .7786.0693 1.12.208.3466.1386.6453.3333.896.584.256.2506.4533.544.592.88.144.336.216.704.216 1.104 0 .3946-.072.7626-.216 1.104-.1387.336-.3334.6293-.584.88-.2507.2506-.5494.4453-.896.584-.3414.1386-.712.208-1.112.208zm-.496 0v-5.552h.752v5.552zm7.7138.08c-.3786 0-.72-.0854-1.024-.256-.304-.176-.544-.4134-.72-.712-.176-.2987-.264-.6374-.264-1.016 0-.3734.0854-.7094.256-1.008.176-.2987.4107-.5334.704-.704.2987-.176.632-.264 1-.264.352 0 .6614.08.928.24.272.16.4827.3813.632.664.1547.2826.232.6026.232.96 0 .0533-.0026.112-.008.176-.0053.0586-.016.128-.032.208h-3.208v-.6h2.824l-.264.232c0-.256-.0453-.472-.136-.648-.0906-.1814-.2186-.32-.384-.416-.1653-.1014-.3653-.152-.6-.152-.2453 0-.4613.0533-.648.16-.1866.1066-.3306.256-.432.448-.1013.192-.152.4186-.152.68 0 .2666.0534.5013.16.704.1067.1973.2587.352.456.464.1974.1066.424.16.68.16.2134 0 .408-.0374.584-.112.1814-.0747.336-.1867.464-.336l.464.472c-.1813.2133-.4053.376-.672.488-.2613.112-.5413.168-.84.168zm3.1559-.08v-5.392h.72v5.392zm-.936-3.144v-.656h2.592v.656zm4.9561 3.224c-.3466 0-.6613-.0854-.944-.256-.2826-.176-.5066-.4134-.672-.712-.16-.2987-.24-.6347-.24-1.008 0-.3734.08-.7094.24-1.008.1654-.2987.3867-.536.664-.712.2827-.176.6-.264.952-.264.288 0 .544.0613.768.184.2294.1173.4134.2826.552.496.1387.208.216.4506.232.728v1.144c-.016.272-.0933.5146-.232.728-.1333.2133-.3146.3813-.544.504-.224.1173-.4826.176-.776.176zm.12-.68c.3574 0 .6454-.12.864-.36.2187-.2454.328-.5574.328-.936 0-.2614-.0506-.488-.152-.68-.096-.1974-.2346-.3494-.416-.456-.1813-.112-.392-.168-.632-.168s-.4533.056-.64.168c-.1813.112-.3253.2666-.432.464-.1013.192-.152.4133-.152.664 0 .256.0507.4826.152.68.1067.192.2534.344.44.456.1867.112.4.168.64.168zm1.144.6v-1.024l.136-.928-.136-.92v-.928h.728v3.8zm1.9443 0v-3.8h.72v3.8zm.36-4.56c-.1334 0-.2427-.0427-.328-.128-.0854-.0907-.128-.2027-.128-.336 0-.128.0426-.2347.128-.32.0853-.0907.1946-.136.328-.136.1333 0 .2426.0453.328.136.0853.0853.128.192.128.32 0 .1333-.0427.2453-.128.336-.0854.0853-.1947.128-.328.128zm1.581 4.56v-5.712h.72v5.712zm3.1415.08c-.2134 0-.416-.0267-.608-.08-.1867-.0587-.36-.1387-.52-.24-.16-.1067-.2987-.232-.416-.376l.464-.464c.1386.1706.2986.2986.48.384.1813.08.384.12.608.12s.3973-.0374.52-.112c.1226-.08.184-.1894.184-.328 0-.1387-.0507-.2454-.152-.32-.096-.08-.2214-.144-.376-.192-.1547-.0534-.32-.104-.496-.152-.1707-.0534-.3334-.12-.488-.2-.1547-.08-.2827-.1894-.384-.328-.096-.1387-.144-.3227-.144-.552 0-.2294.056-.4267.168-.592.112-.1707.2666-.3014.464-.392.2026-.0907.4453-.136.728-.136.2986 0 .5626.0533.792.16.2346.1013.4266.256.576.464l-.464.464c-.1067-.1387-.24-.2454-.4-.32-.1547-.0747-.3307-.112-.528-.112-.208 0-.368.0373-.48.112-.1067.0693-.16.168-.16.296s.048.2266.144.296c.096.0693.2213.128.376.176.16.048.3253.0986.496.152.1706.048.3333.1146.488.2.1546.0853.28.2.376.344.1013.144.152.3333.152.568 0 .3573-.128.64-.384.848-.2507.208-.5894.312-1.016.312z" fill="#273248"/></svg>