<svg fill="none" height="18" viewBox="0 0 12 18" width="12" xmlns="http://www.w3.org/2000/svg"><path clip-rule="evenodd" d="m1.01928 5.187c-.425999 0-.770999-.3555-.704999-.7755.4125-2.5515 2.356499-4.4115 5.729999-4.4115 3.375 0 5.65052 2.04 5.65052 4.8225 0 2.016-.9975 3.432-2.68502 4.4595-1.65.9885-2.121 1.677-2.121 3.015v.045c0 .1989-.07902.3897-.21967.5303-.14065.1407-.33142.2197-.53033.2197h-1.155c-.19762 0-.38726-.078-.5277-.217-.14043-.139-.22032-.3279-.2223-.5255l-.0045-.3c-.0645-1.8315.7155-3.0015 2.4675-4.068 1.545-.948 2.0955-1.7025 2.0955-3.042 0-1.4685-1.137-2.547-2.889-2.547-1.5135 0-2.565.7935-2.907 2.103-.099.381-.417.6915-.81.6915h-1.1655zm4.5315 12.813c.933 0 1.6425-.711 1.6425-1.635 0-.927-.7095-1.638-1.6425-1.638-.909 0-1.6305.711-1.6305 1.6365s.7215 1.6365 1.6305 1.6365z" fill="#ba1a1a" fill-rule="evenodd"/></svg>