<svg fill="none" height="20" viewBox="0 0 21 20" width="21" xmlns="http://www.w3.org/2000/svg"><path d="m19.7007 18.0942-3.7765-3.7655c1.2185-1.5523 1.8796-3.4692 1.8771-5.44267 0-1.75749-.5211-3.47551-1.4975-4.93681s-2.3642-2.60025-3.9879-3.272808c-1.6237-.67256184-3.41043-.848535-5.13415-.505666-1.72372.34287-3.30706 1.189184-4.54979 2.431914-1.24274 1.24273-2.089047 2.82607-2.431917 4.54979-.342869 1.72372-.166896 3.51045.505666 5.13415.672561 1.6237 1.811511 3.0115 3.272801 3.9879 1.4613.9764 3.17933 1.4976 4.93682 1.4976 1.97347.0024 3.89037-.6587 5.44267-1.8772l3.7655 3.7765c.1032.1041.2261.1868.3614.2432.1354.0564.2806.0854.4272.0854s.2918-.029.4272-.0854c.1353-.0564.2582-.1391.3614-.2432.1041-.1032.1868-.2261.2432-.3614.0564-.1354.0854-.2806.0854-.4272s-.029-.2918-.0854-.4272c-.0564-.1353-.1391-.2582-.2432-.3614zm-17.44989-9.20817c0-1.31812.39086-2.60663 1.12317-3.70261.73231-1.09597 1.77316-1.95018 2.99094-2.4546 1.21779-.50443 2.5578-.63641 3.85058-.37925 1.2928.25715 2.4803.89188 3.4124 1.82393.932.93205 1.5667 2.11956 1.8239 3.41235.2571 1.29279.1252 2.63275-.3793 3.85055-.5044 1.2178-1.3586 2.2587-2.4546 2.991-1.0959.7323-2.3845 1.1231-3.70257 1.1231-1.76754 0-3.46269-.7021-4.71253-1.9519-1.24984-1.2499-1.95199-2.945-1.95199-4.71257z" fill="#fff"/></svg>