<svg fill="none" height="56" viewBox="0 0 254 56" width="254" xmlns="http://www.w3.org/2000/svg"><path d="m56.9657 55.4701c-18.4361 0-37.0315.043-55.46763.0265-.43437 0-.517271 0-.971543 0 0-.6617-.026527-1.8427-.026527-2.5871.019895-17.4478.025422-34.8978.016579-52.350052 43.822421 0 87.976321.330827 131.798421.330827v22.741025c.03 10.6163 0 21.2259 0 31.8454h-68.88c-.0166-.6616-.0497-1.3233-.0531-1.9849v-51.45686l-18.5688 19.41626c-6.1575-6.4313-12.1858-12.73356-18.4129-19.24754v48.60184h6.5223v-34.6178l12.0531 13.6533 11.8542-13.6467c.0663.8337.1359 1.2969.1359 1.76v36.0602c0 .8502-.0033-2.0081 0 1.4556zm37.4096-29.4965c-7.5502-7.2054-18.1079-5.1146-22.8795-.2117-5.5308 5.6703-6.2371 13.7987-1.4623 19.79 2.3932 3.0809 5.8445 5.1691 9.689 5.8623 5.5773 1.0553 10.4516-.5161 14.6262-4.3835l4.2377 3.5333v-28.3188zm6.7647 24.8815c2.085 0 3.889.0893 5.676-.0496.346-.0466.677-.1657.973-.3493s.55-.4276.745-.716c1.658-3.0469 3.16-6.1699 4.728-9.2632.239-.4008.498-.7895.776-1.1645 2.129 3.5663 4.112 6.9276 6.151 10.2557.332.5128.892 1.181 1.386 1.2141 1.99.139 4.026.0562 6.3.0562-.441-.6848-.719-1.138-1.018-1.578-3.107-4.615-6.19-9.24-9.344-13.8186-.626-.9098-.663-1.5649-.056-2.5011 2.51-3.8839 4.937-7.8208 7.384-11.7411.246-.3936.435-.8204.763-1.4457-.859 0-1.469.0927-2.039 0-2.729-.5194-4.341.6418-5.564 3.0701-1.25 2.4812-2.918 4.754-4.513 7.2782-1.578-2.4415-2.984-4.6779-4.46-6.8448-.365-.526-1.031-1.1314-1.602-1.1777-1.787-.1522-3.591-.0563-5.723-.0563.551.8932.925 1.535 1.327 2.157 2.092 3.1726 4.128 6.3817 6.32 9.4815.878 1.2439.835 2.157.033 3.4009-1.877 2.9113-3.604 5.9218-5.382 8.896-.902 1.5184-1.8 3.0799-2.861 4.883z" fill="#ff5d01"/><path d="m132.428 55.4172c-.03-15.5489 0-30.9423 0-31.7594-.02-7.2021.046-12.33 0-19.51882 0-.48632 0-2.78888 0-3.278501 40.407-.029774 80.672-.360601 121.072-.360601v54.917322zm90.603-27.1113c-2.892-5.3925-10.376-8.2508-16.782-6.5305-6.479 1.7401-11.486 8.393-11.184 14.8872.348 7.4866 5.441 13.5639 12.471 14.8409 6.568 1.2075 13.624-2.2166 16.038-7.834l-4.973-2.8286c-4.006 6.0674-9.616 7.3609-13.227 3.0503zm24.308 22.4797v-47.85083h-7.258v47.85083zm-55.577-23.9585c-3.415-4.8235-10.216-6.7886-16.284-4.8235-6.483 2.0975-10.501 7.8737-10.452 15.0196.043 6.1798 4.659 12.2406 10.701 14.0568 5.889 1.77 12.762-.2415 15.849-4.7242l-5.033-3.4571c-4.798 3.7052-10.021 3.3612-13.701-.7742-3.077-3.4538-2.799-8.8165.633-12.2406 3.432-3.424 8.512-2.941 13.386 1.2473zm-56.416 24.0147c2.145 0 3.913-.0529 5.67.0199.995.043 1.486-.3772 1.893-1.2208 1.327-2.7194 2.703-5.4123 4.072-8.1085.362-.7146.766-1.4061 1.277-2.3158 2.172 3.6391 4.178 7.0532 6.23 10.4276.289.4731.793 1.1182 1.227 1.1414 2.063.1224 4.135.0529 6.476.0529-.388-.5988-.613-.9561-.849-1.3233-3.173-4.6845-6.323-9.4219-9.539-14.0932-.63-.9098-.664-1.5748-.077-2.511 2.351-3.788 4.626-7.609 6.921-11.4466.298-.4963.563-.9925.961-1.7236-1.439 0-2.599.1191-3.724-.0265-1.575-.2084-2.377.5029-3.093 1.8063-1.559 2.8352-3.27 5.5844-5.024 8.5453-1.588-2.4547-3.014-4.7275-4.529-6.9474-.332-.4764-.939-1.0288-1.453-1.0652-1.85-.1291-3.71-.0497-5.796-.0497.332.5624.524.9363.756 1.287 2.185 3.3082 4.281 6.6827 6.602 9.8917 1.108 1.5284 1.141 2.6466.12 4.2412-2.749 4.2974-5.299 8.7305-8.121 13.4183zm100.182 0v-47.90373h-7.358v47.89713h7.358z" fill="#04478e"/><g fill="#ff5d01"><path d="m76.1414 28.7923.693-.6617c1.3728.6617 1.5452 1.8526 1.1208 3.4208 1.4987-1.0918 2.9213-1.8427 2.6195-3.6623l-3.0672-.3804c2.8948-2.1901 9.3077-1.6542 11.3104 1.5284l-2.016-.5823-2.6759 2.3158c-.8489-.9925-1.5319-.9528-1.9464.1191-.3316.8602-.6367 1.7335-.9318 2.6102-.0232.0728.1426.2085.2189.3309v-.043l-.6997.4069.126.4598c-.3481.7411-.7162 1.4722-1.0179 2.2298-.0465.1158.2254.5128.3316.5128 2.6162-.0232 2.1287 2.1305 2.5963 3.6391.0597.1919.2553.3308.7029.9164l3.475-6.7886 1.8768 1.5615.9285-.8535c.8455-.1291 1.4158 2.7127 2.2448-.3309.136 3.6987-1.0677 6.3883-3.7834 8.3534-3.422 2.4779-7.2949 2.6466-10.7931.536-.126-.2349-.2553-.4665-.3847-.6981.1924-1.2108.3979-2.4183.5704-3.6391.0663-.4499.2122-1.234.0497-1.3233-1.2534-.612-2.1056-2.2198-3.853-1.6541l-.766-.3309c-.1824-.4366-.368-.87-.5272-1.2439 1.3695-.9627 2.6958-1.8427 3.9359-2.8285.1923-.1555 0-.7973-.0265-1.2142l.8091-1.2042-1.1208-.1555c.0199-.4367.01-.8932 0-1.3464z"/><path d="m73.0975 36.8015.7659.3308c.0929.6187.0332 1.3233.3051 1.8461.8356 1.6045 1.7972 3.1428 2.709 4.7076l-.2453.2878c-1.0031-.6758-1.8588-1.5471-2.5158-2.5613-.6571-1.0143-1.1018-2.1505-1.3074-3.3406-.0697-.4069.1857-.8502.2885-1.2704z"/><path d="m80.903 34.6446-.1227-.4598.6963-.407v.043l3.0307.5955-.1094.6617z"/><path d="m76.1679 30.1553 1.1207.1555-.809 1.2042-.7096.0827-.8655-.1886z"/><path d="m76.1414 28.7922c0 .4533.0199.9098.0265 1.363h-1.3661z"/><path d="m74.908 31.3925.8621.2051c-.1923.2315-.388.4631-.7494.9031z"/><path d="m77.0963 43.7026c.1293.2316.2586.4632.3846.6981l-.8488-.4433.2454-.2878c.0736.0061.1467.0172.2188.033z"/></g><path d="m214.804 29.0866-12.269 10.8974c-2.45-2.6466-2.089-7.6685.723-10.5401 3.021-3.0932 8.071-3.3215 11.546-.3573z" fill="#04478e"/></svg>