<svg fill="none" height="40" viewBox="0 0 29 40" width="29" xmlns="http://www.w3.org/2000/svg"><path d="m21.9464 4.8999h-14.4c-2.65097 0-4.8 2.14904-4.8 4.8v9.6c0 2.651 2.14903 4.8 4.8 4.8h14.4c2.651 0 4.8-2.149 4.8-4.8v-9.6c0-2.65096-2.149-4.8-4.8-4.8z" stroke="#fc7643" stroke-linecap="round" stroke-linejoin="round" stroke-width="1.5"/><path d="m18.3465 14.4999-6-3.6v7.2z" stroke="#fc7643" stroke-linecap="round" stroke-linejoin="round" stroke-width="1.5"/><path d="m4.72465 37.5-2.224-5.552h.816l1.832 4.696h-.296l1.848-4.696h.808l-2.24 5.552zm3.73181 0v-3.8h.72v3.8zm.36-4.56c-.13333 0-.24266-.0427-.328-.128-.08533-.0907-.128-.2027-.128-.336 0-.128.04267-.2347.128-.32.08534-.0907.19467-.136.328-.136.13334 0 .24267.0453.328.136.08534.0853.128.192.128.32 0 .1333-.04266.2453-.128.336-.08533.0853-.19466.128-.328.128zm3.18904 4.64c-.352 0-.6666-.0853-.944-.256-.2773-.176-.4986-.4133-.664-.712-.16-.2987-.24-.6347-.24-1.008s.08-.7093.24-1.008c.1654-.2987.3867-.536.664-.712.2774-.176.592-.264.944-.264.2827 0 .5387.0613.768.184.2294.1173.4134.2827.552.496.144.208.224.4507.24.728v1.144c-.016.272-.0933.5147-.232.728-.1386.2133-.3226.3813-.552.504-.2293.1173-.488.176-.776.176zm.12-.68c.24 0 .448-.056.624-.168.1814-.112.3227-.264.424-.456.1014-.1973.152-.4213.152-.672 0-.2613-.0533-.488-.16-.68-.1013-.192-.2426-.344-.424-.456-.176-.112-.384-.168-.624-.168s-.4506.056-.632.168c-.1813.112-.3253.2667-.432.464-.1013.192-.152.4133-.152.664 0 .256.0507.4827.152.68.1067.192.2507.344.432.456.1867.112.4.168.64.168zm1.88.6h-.728v-1.024l.136-.928-.136-.92v-2.84h.728zm2.9683.08c-.3787 0-.72-.0853-1.024-.256-.304-.176-.544-.4133-.72-.712s-.264-.6373-.264-1.016c0-.3733.0853-.7093.256-1.008.176-.2987.4106-.5333.704-.704.2986-.176.632-.264 1-.264.352 0 .6613.08.928.24.272.16.4826.3813.632.664.1546.2827.232.6027.232.96 0 .0533-.0027.112-.008.176-.0054.0587-.016.128-.032.208h-3.208v-.6h2.824l-.264.232c0-.256-.0454-.472-.136-.648-.0907-.1813-.2187-.32-.384-.416-.1654-.1013-.3654-.152-.6-.152-.2454 0-.4614.0533-.648.16-.1867.1067-.3307.256-.432.448-.1014.192-.152.4187-.152.68 0 .2667.0533.5013.16.704.1066.1973.2586.352.456.464.1973.1067.424.16.68.16.2133 0 .408-.0373.584-.112.1813-.0747.336-.1867.464-.336l.464.472c-.1814.2133-.4054.376-.672.488-.2614.112-.5414.168-.84.168zm4.425 0c-.3733 0-.7093-.088-1.008-.264-.2986-.176-.536-.4133-.712-.712-.176-.304-.264-.6427-.264-1.016 0-.368.088-.6987.264-.992.176-.2987.4134-.536.712-.712.2987-.176.6347-.264 1.008-.264.368 0 .7014.088 1 .264.304.1707.544.4053.72.704s.264.632.264 1c0 .3733-.088.712-.264 1.016-.176.2987-.416.536-.72.712-.2986.176-.632.264-1 .264zm0-.696c.24 0 .4534-.056.64-.168.1867-.112.3334-.264.44-.456.1067-.1973.16-.4213.16-.672 0-.2453-.056-.464-.168-.656-.1066-.192-.2533-.3413-.44-.448-.1813-.112-.392-.168-.632-.168s-.4533.056-.64.168c-.1866.1067-.3333.256-.44.448-.1066.192-.16.4107-.16.656 0 .2507.0534.4747.16.672.1067.192.2534.344.44.456.1867.112.4.168.64.168zm4.1633.696c-.2133 0-.416-.0267-.608-.08-.1867-.0587-.36-.1387-.52-.24-.16-.1067-.2987-.232-.416-.376l.464-.464c.1387.1707.2987.2987.48.384.1813.08.384.12.608.12s.3973-.0373.52-.112c.1227-.08.184-.1893.184-.328s-.0507-.2453-.152-.32c-.096-.08-.2213-.144-.376-.192-.1547-.0533-.32-.104-.496-.152-.1707-.0533-.3333-.12-.488-.2s-.2827-.1893-.384-.328c-.096-.1387-.144-.3227-.144-.552s.056-.4267.168-.592c.112-.1707.2667-.3013.464-.392.2027-.0907.4453-.136.728-.136.2987 0 .5627.0533.792.16.2347.1013.4267.256.576.464l-.464.464c-.1067-.1387-.24-.2453-.4-.32-.1547-.0747-.3307-.112-.528-.112-.208 0-.368.0373-.48.112-.1067.0693-.16.168-.16.296s.048.2267.144.296.2213.128.376.176c.16.048.3253.0987.496.152.1707.048.3333.1147.488.2s.28.2.376.344c.1013.144.152.3333.152.568 0 .3573-.128.64-.384.848-.2507.208-.5893.312-1.016.312z" fill="#fc7643"/></svg>